<svg width="394" height="31" viewBox="0 0 394 31" fill="none" xmlns="http://www.w3.org/2000/svg">
<path d="M142.249 0.818115H189.369V2.99994H142.249V0.818115Z" fill="black"/>
<path d="M142.249 28.4956H189.369V30.6774H142.249V28.4956Z" fill="black"/>
<path d="M147.992 13.9H147.592L146.492 21H143.632L141.812 9.6H143.892L145.032 18.2H145.472L146.632 10.72H149.032L150.192 18.2H150.632L151.772 9.6H153.772L151.952 21H149.092L147.992 13.9Z" fill="black"/>
<path d="M161.078 18.52L161.678 19.12H164.198V21H155.958V19.12H158.478L159.078 18.52V12.08L158.478 11.48H155.958V9.6H164.198V11.48H161.678L161.078 12.08V18.52Z" fill="black"/>
<path d="M174.003 11.48L173.403 12.08V21H171.323V12.08L170.723 11.48H167.043V9.6H177.683V11.48H174.003Z" fill="black"/>
<path d="M181.988 16.68V21H179.948V9.6H181.988V13.6L182.588 14.2H186.708L187.308 13.6V9.6H189.348V21H187.308V16.68L186.708 16.08H182.588L181.988 16.68Z" fill="black"/>
<path d="M206.389 23.0686L207.61 24.3367H221.746V28H202.443V1.22946H206.389V23.0686Z" fill="black"/>
<path d="M248.834 28L245.875 20.1567H234.087L231.128 28H226.901L237.516 1.22946H242.541L253.108 28H248.834ZM236.435 16.7282H243.48L244.279 15.9298L240.615 6.30177H239.347L235.684 15.9767L236.435 16.7282Z" fill="black"/>
<path d="M262.678 17.3388V28H258.733V1.22946H269.206C276.11 1.22946 279.914 4.09438 279.914 9.30759C279.914 13.2997 277.707 15.8828 273.574 16.8691V17.8554L280.948 28H276.204L268.549 17.3388H262.678ZM269.112 4.84583H263.946L262.678 6.11391V13.6754H269.112C273.715 13.6754 275.875 12.0786 275.875 9.30759C275.875 6.44267 273.715 4.84583 269.112 4.84583Z" fill="black"/>
<path d="M306.204 28L303.245 20.1567H291.457L288.498 28H284.271L294.885 1.22946H299.91L310.478 28H306.204ZM293.805 16.7282H300.85L301.648 15.9298L297.985 6.30177H296.717L293.053 15.9767L293.805 16.7282Z" fill="black"/>
<path d="M328.595 28H323.523L312.956 1.22946H317.417L325.495 22.7868H326.716L334.795 1.22946H339.162L328.595 28Z" fill="black"/>
<path d="M348.967 23.0686L350.188 24.3367H365.734V28H345.022V1.22946H365.264V4.8928H350.188L348.967 6.11391V12.3604H363.198V16.0237H348.967V23.0686Z" fill="black"/>
<path d="M378.497 23.0686L379.718 24.3367H393.855V28H374.552V1.22946H378.497V23.0686Z" fill="black"/>
<path d="M19.7041 8.50917C19.7041 10.5287 18.6708 12.3604 16.6983 13.3467V14.239C19.0466 15.1314 20.8782 17.4796 20.8782 20.1567C20.8782 25.3229 17.1679 28 10.1231 28H0.0253906V1.22946H9.60643C16.2286 1.22946 19.7041 3.81258 19.7041 8.50917ZM5.14467 4.65797L3.92356 5.87908V12.4543H9.46553C13.8803 12.4543 15.8059 10.9984 15.8059 8.50917C15.8059 6.06695 13.8803 4.65797 9.46553 4.65797H5.14467ZM3.92356 23.3034L5.14467 24.5715H10.0291C14.8666 24.5715 16.9801 22.9277 16.9801 20.1567C16.9801 17.3857 14.8666 15.7419 10.0291 15.7419H3.92356V23.3034Z" fill="black"/>
<path d="M36.6239 24.9472C40.4281 24.9472 43.34 22.2232 43.34 17.9493V1.22946H47.2852V18.4659C47.2852 24.6185 42.5416 28.6575 36.6239 28.6575C30.7062 28.6575 25.9627 24.6185 25.9627 18.4659V1.22946H29.9078V17.9493C29.9078 22.2232 32.8197 24.9472 36.6239 24.9472Z" fill="black"/>
<path d="M65.8018 23.1156L67.0229 24.3367H73.4572V28H54.2482V24.3367H60.6356L61.9036 23.1156V6.11391L60.6356 4.84583H54.2482V1.22946H73.4572V4.84583H67.0229L65.8018 6.11391V23.1156Z" fill="black"/>
<path d="M86.1032 23.0686L87.3243 24.3367H101.461V28H82.158V1.22946H86.1032V23.0686Z" fill="black"/>
<path d="M120.528 4.8928L119.259 6.11391V28H115.22V6.11391L113.999 4.8928H104.982V1.22946H129.498V4.8928H120.528Z" fill="black"/>
</svg>
