<svg width="398" height="31" viewBox="0 0 398 31" fill="none" xmlns="http://www.w3.org/2000/svg">
<path d="M144.249 0.818115H191.369V2.99994H144.249V0.818115Z" fill="black"/>
<path d="M144.249 28.4956H191.369V30.6774H144.249V28.4956Z" fill="black"/>
<path d="M149.992 13.9H149.592L148.492 21H145.632L143.812 9.6H145.892L147.032 18.2H147.472L148.632 10.72H151.032L152.192 18.2H152.632L153.772 9.6H155.772L153.952 21H151.092L149.992 13.9Z" fill="black"/>
<path d="M163.078 18.52L163.678 19.12H166.198V21H157.958V19.12H160.478L161.078 18.52V12.08L160.478 11.48H157.958V9.6H166.198V11.48H163.678L163.078 12.08V18.52Z" fill="black"/>
<path d="M176.003 11.48L175.403 12.08V21H173.323V12.08L172.723 11.48H169.043V9.6H179.683V11.48H176.003Z" fill="black"/>
<path d="M183.988 16.68V21H181.948V9.6H183.988V13.6L184.588 14.2H188.708L189.308 13.6V9.6H191.348V21H189.308V16.68L188.708 16.08H184.588L183.988 16.68Z" fill="black"/>
<path d="M210.389 23.0686L211.61 24.3367H225.746V28H206.443V1.22946H210.389V23.0686Z" fill="black"/>
<path d="M252.834 28L249.875 20.1567H238.087L235.128 28H230.901L241.516 1.22946H246.541L257.108 28H252.834ZM240.435 16.7282H247.48L248.279 15.9298L244.615 6.30177H243.347L239.684 15.9767L240.435 16.7282Z" fill="black"/>
<path d="M266.678 17.3388V28H262.733V1.22946H273.206C280.11 1.22946 283.914 4.09438 283.914 9.30759C283.914 13.2997 281.707 15.8828 277.574 16.8691V17.8554L284.948 28H280.204L272.549 17.3388H266.678ZM273.112 4.84583H267.946L266.678 6.11391V13.6754H273.112C277.715 13.6754 279.875 12.0786 279.875 9.30759C279.875 6.44267 277.715 4.84583 273.112 4.84583Z" fill="black"/>
<path d="M310.204 28L307.245 20.1567H295.457L292.498 28H288.271L298.885 1.22946H303.91L314.478 28H310.204ZM297.805 16.7282H304.85L305.648 15.9298L301.985 6.30177H300.717L297.053 15.9767L297.805 16.7282Z" fill="black"/>
<path d="M332.595 28H327.523L316.956 1.22946H321.417L329.495 22.7868H330.716L338.795 1.22946H343.162L332.595 28Z" fill="black"/>
<path d="M352.967 23.0686L354.188 24.3367H369.734V28H349.022V1.22946H369.264V4.8928H354.188L352.967 6.11391V12.3604H367.198V16.0237H352.967V23.0686Z" fill="black"/>
<path d="M382.497 23.0686L383.718 24.3367H397.855V28H378.552V1.22946H382.497V23.0686Z" fill="black"/>
<path d="M19.7041 8.50917C19.7041 10.5287 18.6708 12.3604 16.6983 13.3467V14.239C19.0466 15.1314 20.8782 17.4796 20.8782 20.1567C20.8782 25.3229 17.1679 28 10.1231 28H0.0253906V1.22946H9.60643C16.2286 1.22946 19.7041 3.81258 19.7041 8.50917ZM5.14467 4.65797L3.92356 5.87908V12.4543H9.46553C13.8803 12.4543 15.8059 10.9984 15.8059 8.50917C15.8059 6.06695 13.8803 4.65797 9.46553 4.65797H5.14467ZM3.92356 23.3034L5.14467 24.5715H10.0291C14.8666 24.5715 16.9801 22.9277 16.9801 20.1567C16.9801 17.3857 14.8666 15.7419 10.0291 15.7419H3.92356V23.3034Z" fill="black"/>
<path d="M36.6239 24.9472C40.4281 24.9472 43.34 22.2232 43.34 17.9493V1.22946H47.2852V18.4659C47.2852 24.6185 42.5416 28.6575 36.6239 28.6575C30.7062 28.6575 25.9627 24.6185 25.9627 18.4659V1.22946H29.9078V17.9493C29.9078 22.2232 32.8197 24.9472 36.6239 24.9472Z" fill="black"/>
<path d="M65.8018 23.1156L67.0229 24.3367H73.4572V28H54.2482V24.3367H60.6356L61.9036 23.1156V6.11391L60.6356 4.84583H54.2482V1.22946H73.4572V4.84583H67.0229L65.8018 6.11391V23.1156Z" fill="black"/>
<path d="M86.1032 23.0686L87.3243 24.3367H101.461V28H82.158V1.22946H86.1032V23.0686Z" fill="black"/>
<path d="M120.528 4.8928L119.259 6.11391V28H115.22V6.11391L113.999 4.8928H104.982V1.22946H129.498V4.8928H120.528Z" fill="black"/>
</svg>
