<svg width="408" height="58" viewBox="0 0 408 58" fill="none" xmlns="http://www.w3.org/2000/svg">
<rect x="148.153" y="15.573" width="47.1196" height="2.18182" fill="black"/>
<rect x="148.153" y="43.2505" width="47.1196" height="2.18182" fill="black"/>
<path d="M153.896 28.6549H153.496L152.396 35.7549H149.536L147.716 24.3549H149.796L150.936 32.9549H151.376L152.536 25.4749H154.936L156.096 32.9549H156.536L157.676 24.3549H159.676L157.856 35.7549H154.996L153.896 28.6549ZM166.981 33.2749L167.581 33.8749H170.101V35.7549H161.861V33.8749H164.381L164.981 33.2749V26.8349L164.381 26.2349H161.861V24.3549H170.101V26.2349H167.581L166.981 26.8349V33.2749ZM179.906 26.2349L179.306 26.8349V35.7549H177.226V26.8349L176.626 26.2349H172.946V24.3549H183.586V26.2349H179.906ZM187.892 31.4349V35.7549H185.852V24.3549H187.892V28.3549L188.492 28.9549H192.612L193.212 28.3549V24.3549H195.252V35.7549H193.212V31.4349L192.612 30.8349H188.492L187.892 31.4349Z" fill="black"/>
<path d="M216.292 37.8235L217.513 39.0915H231.65V42.7549H212.347V15.9843H216.292V37.8235ZM258.738 42.7549L255.779 34.9116H243.991L241.032 42.7549H236.805L247.419 15.9843H252.445L263.012 42.7549H258.738ZM246.339 31.4831H253.384L254.182 30.6847L250.519 21.0567H249.251L245.588 30.7316L246.339 31.4831ZM272.582 32.0936V42.7549H268.636V15.9843H279.11C286.014 15.9843 289.818 18.8493 289.818 24.0625C289.818 28.0546 287.611 30.6377 283.478 31.624V32.6103L290.851 42.7549H286.108L278.452 32.0936H272.582ZM279.016 19.6007H273.85L272.582 20.8688V28.4303H279.016C283.619 28.4303 285.779 26.8335 285.779 24.0625C285.779 21.1976 283.619 19.6007 279.016 19.6007ZM316.108 42.7549L313.149 34.9116H301.36L298.401 42.7549H294.175L304.789 15.9843H309.814L320.381 42.7549H316.108ZM303.709 31.4831H310.753L311.552 30.6847L307.889 21.0567H306.62L302.957 30.7316L303.709 31.4831ZM338.499 42.7549H333.427L322.859 15.9843H327.321L335.399 37.5417H336.62L344.698 15.9843H349.066L338.499 42.7549ZM358.871 37.8235L360.092 39.0915H375.638V42.7549H354.926V15.9843H375.168V19.6477H360.092L358.871 20.8688V27.1153H373.101V30.7786H358.871V37.8235ZM388.401 37.8235L389.622 39.0915H403.759V42.7549H384.456V15.9843H388.401V37.8235Z" fill="black"/>
<path d="M25.6078 23.2641C25.6078 25.2836 24.5746 27.1153 22.602 28.1015V28.9939C24.9503 29.8862 26.782 32.2345 26.782 34.9116C26.782 40.0778 23.0717 42.7549 16.0268 42.7549H5.92916V15.9843H15.5102C22.1324 15.9843 25.6078 18.5675 25.6078 23.2641ZM11.0484 19.4129L9.82732 20.634V27.2092H15.3693C19.7841 27.2092 21.7097 25.7532 21.7097 23.2641C21.7097 20.8218 19.7841 19.4129 15.3693 19.4129H11.0484ZM9.82732 38.0583L11.0484 39.3264H15.9329C20.7704 39.3264 22.8838 37.6826 22.8838 34.9116C22.8838 32.1406 20.7704 30.4968 15.9329 30.4968H9.82732V38.0583ZM42.5277 39.7021C46.3319 39.7021 49.2438 36.9781 49.2438 32.7042V15.9843H53.1889V33.2208C53.1889 39.3733 48.4454 43.4124 42.5277 43.4124C36.61 43.4124 31.8664 39.3733 31.8664 33.2208V15.9843H35.8115V32.7042C35.8115 36.9781 38.7234 39.7021 42.5277 39.7021ZM71.7056 37.8704L72.9267 39.0915H79.361V42.7549H60.152V39.0915H66.5393L67.8074 37.8704V20.8688L66.5393 19.6007H60.152V15.9843H79.361V19.6007H72.9267L71.7056 20.8688V37.8704ZM92.0069 37.8235L93.228 39.0915H107.365V42.7549H88.0618V15.9843H92.0069V37.8235ZM127.431 19.6477L126.163 20.8688V42.7549H122.124V20.8688L120.903 19.6477H111.886V15.9843H136.402V19.6477H127.431Z" fill="black"/>
</svg>
