<svg width="513" height="36" viewBox="0 0 513 36" fill="none" xmlns="http://www.w3.org/2000/svg">
<path d="M183.88 0H242.489V2.87502H183.88V0Z" fill="#FEBC11"/>
<path d="M183.88 32.2162H242.489V35.0912H183.88V32.2162Z" fill="#FF9CB6"/>
<path d="M233.414 19.2471V24.5734H230.899V10.5178H233.414V15.4496L234.154 16.1893H239.234L239.973 15.4496V10.5178H242.489V24.5734H239.973V19.2471L239.234 18.5073H234.154L233.414 19.2471Z" fill="black"/>
<path d="M223.569 12.8357L222.829 13.5755V24.5734H220.265V13.5755L219.525 12.8357H214.988V10.5178H228.106V12.8357H223.569Z" fill="black"/>
<path d="M207.633 21.5157L208.373 22.2555H211.48V24.5734H201.32V22.2555H204.427L205.167 21.5157V13.5755L204.427 12.8357H201.32V10.5178H211.48V12.8357H208.373L207.633 13.5755V21.5157Z" fill="black"/>
<path d="M191.5 15.8194H191.006L189.65 24.5734H186.124L183.88 10.5178H186.444L187.85 21.1211H188.392L189.823 11.8987H192.782L194.212 21.1211H194.755L196.16 10.5178H198.626L196.382 24.5734H192.856L191.5 15.8194Z" fill="black"/>
<path d="M492.517 28.6661L494.12 30.3306H512.676V35.1391H487.338V0H492.517V28.6661Z" fill="black"/>
<path d="M453.756 28.6661L455.358 30.3306H475.764V35.1391H448.577V0H475.147V4.80851H455.358L453.756 6.41135V14.6105H472.435V19.419H453.756V28.6661Z" fill="black"/>
<path d="M427.015 35.1391H420.357L406.486 0H412.343L422.946 28.2962H424.549L435.152 0H440.886L427.015 35.1391Z" fill="black"/>
<path d="M401.138 35.1391L397.254 24.844H381.781L377.897 35.1391H372.349L386.281 0H392.877L406.748 35.1391H401.138ZM384.863 20.3437H394.11L395.158 19.2957L390.35 6.65794H388.685L383.877 19.3573L384.863 20.3437Z" fill="black"/>
<path d="M344.006 21.1451V35.1391H338.828V0H352.575C361.637 0 366.631 3.7605 366.631 10.6034C366.631 15.8434 363.733 19.234 358.308 20.5286V21.8232L367.987 35.1391H361.761L351.712 21.1451H344.006ZM352.452 4.74686H345.671L344.006 6.41135V16.3366H352.452C358.493 16.3366 361.329 14.2406 361.329 10.6034C361.329 6.84288 358.493 4.74686 352.452 4.74686Z" fill="black"/>
<path d="M325.835 35.1391L321.951 24.844H306.477L302.594 35.1391H297.045L310.978 0H317.574L331.445 35.1391H325.835ZM309.56 20.3437H318.807L319.855 19.2957L315.046 6.65794H313.382L308.573 19.3573L309.56 20.3437Z" fill="black"/>
<path d="M270.647 28.6661L272.137 30.3306H289.388V35.1391H265.833V0H270.647V28.6661Z" fill="black"/>
<path d="M152.772 4.80822L151.107 6.41096V35.137H145.806V6.41096L144.203 4.80822H132.368V0H164.546V4.80822H152.772Z" fill="black"/>
<path d="M113.305 28.6644L114.907 30.3288H133.462V35.137H108.126V0H113.305V28.6644Z" fill="black"/>
<path d="M86.6585 28.726L88.2613 30.3288H96.7065V35.137H71.4941V30.3288H79.8777L81.5421 28.726V6.41096L79.8777 4.74658H71.4941V0H96.7065V4.74658H88.2613L86.6585 6.41096V28.726Z" fill="black"/>
<path d="M48.3613 31.1301C53.3545 31.1301 57.1764 27.5548 57.1764 21.9452V0H62.3545V22.6233C62.3545 30.6986 56.1284 36 48.3613 36C40.5942 36 34.3682 30.6986 34.3682 22.6233V0H39.5462V21.9452C39.5462 27.5548 43.3682 31.1301 48.3613 31.1301Z" fill="black"/>
<path d="M26.154 9.55479C26.154 12.2055 24.7978 14.6096 22.2087 15.9041V17.0753C25.2909 18.2466 27.6951 21.3288 27.6951 24.8425C27.6951 31.6233 22.8252 35.137 13.5786 35.137H0.325195V0H12.9005C21.5923 0 26.154 3.39041 26.154 9.55479ZM7.04437 4.5L5.44163 6.10274V14.7329H12.7156C18.5101 14.7329 21.0375 12.8219 21.0375 9.55479C21.0375 6.34932 18.5101 4.5 12.7156 4.5H7.04437ZM5.44163 28.9726L7.04437 30.637H13.4553C19.8046 30.637 22.5786 28.4794 22.5786 24.8425C22.5786 21.2055 19.8046 19.0479 13.4553 19.0479H5.44163V28.9726Z" fill="black"/>
</svg>
