<svg width="16" height="17" viewBox="0 0 16 17" fill="none" xmlns="http://www.w3.org/2000/svg">
<mask id="mask0_108_1187" style="mask-type:alpha" maskUnits="userSpaceOnUse" x="0" y="0" width="16" height="17">
<rect y="0.5" width="16" height="16" fill="#D9D9D9"/>
</mask>
<g mask="url(#mask0_108_1187)">
<path d="M3.60015 14.1C3.27015 14.1 2.98765 13.9825 2.75265 13.7475C2.51765 13.5125 2.40015 13.23 2.40015 12.9V4.10002C2.40015 3.77002 2.51765 3.48752 2.75265 3.25252C2.98765 3.01752 3.27015 2.90002 3.60015 2.90002H8.00015V4.10002H3.60015V12.9H12.4001V8.50002H13.6001V12.9C13.6001 13.23 13.4826 13.5125 13.2476 13.7475C13.0126 13.9825 12.7301 14.1 12.4001 14.1H3.60015ZM6.45015 10.9L5.60015 10.05L11.5501 4.10002H9.60015V2.90002H13.6001V6.90002H12.4001V4.95002L6.45015 10.9Z" fill="black"/>
</g>
</svg>
